<svg width="3704" height="1243" viewBox="0 0 3704 1243" fill="none" xmlns="http://www.w3.org/2000/svg">
<rect width="3704" height="1243" fill="url(#paint0_linear_212_243)"/>
<rect x="95" y="103" width="3514" height="1037" rx="60" fill="white"/>
<g filter="url(#filter0_d_212_243)">
<path d="M691.8 907L784.5 697H843L936 907H874.2L801.6 726.1H825L752.4 907H691.8ZM742.5 866.2L757.8 822.4H860.4L875.7 866.2H742.5ZM982.84 907V697H1082.14C1105.34 697 1125.74 701.3 1143.34 709.9C1160.94 718.5 1174.64 730.6 1184.44 746.2C1194.44 761.8 1199.44 780.4 1199.44 802C1199.44 823.4 1194.44 842 1184.44 857.8C1174.64 873.4 1160.94 885.5 1143.34 894.1C1125.74 902.7 1105.34 907 1082.14 907H982.84ZM1042.24 859.6H1079.74C1091.74 859.6 1102.14 857.4 1110.94 853C1119.94 848.4 1126.94 841.8 1131.94 833.2C1136.94 824.4 1139.44 814 1139.44 802C1139.44 789.8 1136.94 779.4 1131.94 770.8C1126.94 762.2 1119.94 755.7 1110.94 751.3C1102.14 746.7 1091.74 744.4 1079.74 744.4H1042.24V859.6ZM1318.16 907L1228.46 697H1292.66L1368.26 878.8H1330.46L1407.86 697H1466.66L1376.66 907H1318.16ZM1612.22 911.2C1595.42 911.2 1579.92 908.5 1565.72 903.1C1551.52 897.7 1539.12 890.1 1528.52 880.3C1518.12 870.3 1510.02 858.7 1504.22 845.5C1498.42 832.3 1495.52 817.8 1495.52 802C1495.52 786.2 1498.42 771.7 1504.22 758.5C1510.02 745.3 1518.12 733.8 1528.52 724C1539.12 714 1551.52 706.3 1565.72 700.9C1579.92 695.5 1595.42 692.8 1612.22 692.8C1629.22 692.8 1644.72 695.5 1658.72 700.9C1672.92 706.3 1685.22 714 1695.62 724C1706.02 733.8 1714.12 745.3 1719.92 758.5C1725.92 771.7 1728.92 786.2 1728.92 802C1728.92 817.8 1725.92 832.4 1719.92 845.8C1714.12 859 1706.02 870.5 1695.62 880.3C1685.22 890.1 1672.92 897.7 1658.72 903.1C1644.72 908.5 1629.22 911.2 1612.22 911.2ZM1612.22 862C1620.22 862 1627.62 860.6 1634.42 857.8C1641.42 855 1647.42 851 1652.42 845.8C1657.62 840.4 1661.62 834 1664.42 826.6C1667.42 819.2 1668.92 811 1668.92 802C1668.92 792.8 1667.42 784.6 1664.42 777.4C1661.62 770 1657.62 763.7 1652.42 758.5C1647.42 753.1 1641.42 749 1634.42 746.2C1627.62 743.4 1620.22 742 1612.22 742C1604.22 742 1596.72 743.4 1589.72 746.2C1582.92 749 1576.92 753.1 1571.72 758.5C1566.72 763.7 1562.72 770 1559.72 777.4C1556.92 784.6 1555.52 792.8 1555.52 802C1555.52 811 1556.92 819.2 1559.72 826.6C1562.72 834 1566.72 840.4 1571.72 845.8C1576.92 851 1582.92 855 1589.72 857.8C1596.72 860.6 1604.22 862 1612.22 862ZM1803.23 907V697H1888.73C1911.13 697 1930.73 701.5 1947.53 710.5C1964.53 719.3 1977.73 731.6 1987.13 747.4C1996.53 763.2 2001.23 781.4 2001.23 802C2001.23 822.6 1996.53 840.8 1987.13 856.6C1977.73 872.4 1964.53 884.8 1947.53 893.8C1930.73 902.6 1911.13 907 1888.73 907H1803.23ZM1825.43 887.8H1887.53C1906.13 887.8 1922.23 884.2 1935.83 877C1949.63 869.6 1960.33 859.5 1967.93 846.7C1975.53 833.7 1979.33 818.8 1979.33 802C1979.33 785 1975.53 770.1 1967.93 757.3C1960.33 744.5 1949.63 734.5 1935.83 727.3C1922.23 719.9 1906.13 716.2 1887.53 716.2H1825.43V887.8ZM2081.08 907V697H2159.68C2177.48 697 2192.78 699.9 2205.58 705.7C2218.38 711.3 2228.18 719.5 2234.98 730.3C2241.98 740.9 2245.48 753.8 2245.48 769C2245.48 783.8 2241.98 796.6 2234.98 807.4C2228.18 818 2218.38 826.2 2205.58 832C2192.78 837.6 2177.48 840.4 2159.68 840.4H2093.38L2103.28 830.2V907H2081.08ZM2224.48 907L2170.48 830.8H2194.48L2248.78 907H2224.48ZM2103.28 832L2093.38 821.5H2159.08C2180.08 821.5 2195.98 816.9 2206.78 807.7C2217.78 798.5 2223.28 785.6 2223.28 769C2223.28 752.2 2217.78 739.2 2206.78 730C2195.98 720.8 2180.08 716.2 2159.08 716.2H2093.38L2103.28 705.7V832ZM2412.48 908.8C2385.68 908.8 2364.58 901.1 2349.18 885.7C2333.78 870.3 2326.08 847.5 2326.08 817.3V697H2348.28V816.4C2348.28 841.2 2353.88 859.5 2365.08 871.3C2376.28 883.1 2392.08 889 2412.48 889C2433.08 889 2448.98 883.1 2460.18 871.3C2471.38 859.5 2476.98 841.2 2476.98 816.4V697H2498.58V817.3C2498.58 847.5 2490.88 870.3 2475.48 885.7C2460.28 901.1 2439.28 908.8 2412.48 908.8ZM2687.57 908.8C2671.57 908.8 2656.77 906.2 2643.17 901C2629.77 895.6 2618.07 888.1 2608.07 878.5C2598.27 868.9 2590.57 857.6 2584.97 844.6C2579.57 831.6 2576.87 817.4 2576.87 802C2576.87 786.6 2579.57 772.4 2584.97 759.4C2590.57 746.4 2598.37 735.1 2608.37 725.5C2618.37 715.9 2630.07 708.5 2643.47 703.3C2657.07 697.9 2671.87 695.2 2687.87 695.2C2703.87 695.2 2718.47 697.7 2731.67 702.7C2745.07 707.7 2756.47 715.3 2765.87 725.5L2752.07 739.6C2743.27 730.8 2733.57 724.5 2722.97 720.7C2712.37 716.9 2700.97 715 2688.77 715C2675.77 715 2663.77 717.2 2652.77 721.6C2641.97 725.8 2632.47 731.9 2624.27 739.9C2616.27 747.7 2609.97 756.9 2605.37 767.5C2600.97 777.9 2598.77 789.4 2598.77 802C2598.77 814.4 2600.97 825.9 2605.37 836.5C2609.97 847.1 2616.27 856.4 2624.27 864.4C2632.47 872.2 2641.97 878.3 2652.77 882.7C2663.77 886.9 2675.67 889 2688.47 889C2700.47 889 2711.77 887.2 2722.37 883.6C2733.17 880 2743.07 873.9 2752.07 865.3L2764.67 882.1C2754.67 890.9 2742.97 897.6 2729.57 902.2C2716.17 906.6 2702.17 908.8 2687.57 908.8ZM2743.37 879.4V802H2764.67V882.1L2743.37 879.4ZM2915.4 908.8C2899.8 908.8 2884.8 906.3 2870.4 901.3C2856.2 896.1 2845.2 889.5 2837.4 881.5L2846.1 864.4C2853.5 871.6 2863.4 877.7 2875.8 882.7C2888.4 887.5 2901.6 889.9 2915.4 889.9C2928.6 889.9 2939.3 888.3 2947.5 885.1C2955.9 881.7 2962 877.2 2965.8 871.6C2969.8 866 2971.8 859.8 2971.8 853C2971.8 844.8 2969.4 838.2 2964.6 833.2C2960 828.2 2953.9 824.3 2946.3 821.5C2938.7 818.5 2930.3 815.9 2921.1 813.7C2911.9 811.5 2902.7 809.2 2893.5 806.8C2884.3 804.2 2875.8 800.8 2868 796.6C2860.4 792.4 2854.2 786.9 2849.4 780.1C2844.8 773.1 2842.5 764 2842.5 752.8C2842.5 742.4 2845.2 732.9 2850.6 724.3C2856.2 715.5 2864.7 708.5 2876.1 703.3C2887.5 697.9 2902.1 695.2 2919.9 695.2C2931.7 695.2 2943.4 696.9 2955 700.3C2966.6 703.5 2976.6 708 2985 713.8L2977.5 731.5C2968.5 725.5 2958.9 721.1 2948.7 718.3C2938.7 715.5 2929 714.1 2919.6 714.1C2907 714.1 2896.6 715.8 2888.4 719.2C2880.2 722.6 2874.1 727.2 2870.1 733C2866.3 738.6 2864.4 745 2864.4 752.2C2864.4 760.4 2866.7 767 2871.3 772C2876.1 777 2882.3 780.9 2889.9 783.7C2897.7 786.5 2906.2 789 2915.4 791.2C2924.6 793.4 2933.7 795.8 2942.7 798.4C2951.9 801 2960.3 804.4 2967.9 808.6C2975.7 812.6 2981.9 818 2986.5 824.8C2991.3 831.6 2993.7 840.5 2993.7 851.5C2993.7 861.7 2990.9 871.2 2985.3 880C2979.7 888.6 2971.1 895.6 2959.5 901C2948.1 906.2 2933.4 908.8 2915.4 908.8Z" fill="#142A48"/>
</g>
<g filter="url(#filter1_d_212_243)">
<path d="M691.8 907L784.5 697H843L936 907H874.2L801.6 726.1H825L752.4 907H691.8ZM742.5 866.2L757.8 822.4H860.4L875.7 866.2H742.5ZM982.84 907V697H1082.14C1105.34 697 1125.74 701.3 1143.34 709.9C1160.94 718.5 1174.64 730.6 1184.44 746.2C1194.44 761.8 1199.44 780.4 1199.44 802C1199.44 823.4 1194.44 842 1184.44 857.8C1174.64 873.4 1160.94 885.5 1143.34 894.1C1125.74 902.7 1105.34 907 1082.14 907H982.84ZM1042.24 859.6H1079.74C1091.74 859.6 1102.14 857.4 1110.94 853C1119.94 848.4 1126.94 841.8 1131.94 833.2C1136.94 824.4 1139.44 814 1139.44 802C1139.44 789.8 1136.94 779.4 1131.94 770.8C1126.94 762.2 1119.94 755.7 1110.94 751.3C1102.14 746.7 1091.74 744.4 1079.74 744.4H1042.24V859.6ZM1318.16 907L1228.46 697H1292.66L1368.26 878.8H1330.46L1407.86 697H1466.66L1376.66 907H1318.16ZM1612.22 911.2C1595.42 911.2 1579.92 908.5 1565.72 903.1C1551.52 897.7 1539.12 890.1 1528.52 880.3C1518.12 870.3 1510.02 858.7 1504.22 845.5C1498.42 832.3 1495.52 817.8 1495.52 802C1495.52 786.2 1498.42 771.7 1504.22 758.5C1510.02 745.3 1518.12 733.8 1528.52 724C1539.12 714 1551.52 706.3 1565.72 700.9C1579.92 695.5 1595.42 692.8 1612.22 692.8C1629.22 692.8 1644.72 695.5 1658.72 700.9C1672.92 706.3 1685.22 714 1695.62 724C1706.02 733.8 1714.12 745.3 1719.92 758.5C1725.92 771.7 1728.92 786.2 1728.92 802C1728.92 817.8 1725.92 832.4 1719.92 845.8C1714.12 859 1706.02 870.5 1695.62 880.3C1685.22 890.1 1672.92 897.7 1658.72 903.1C1644.72 908.5 1629.22 911.2 1612.22 911.2ZM1612.22 862C1620.22 862 1627.62 860.6 1634.42 857.8C1641.42 855 1647.42 851 1652.42 845.8C1657.62 840.4 1661.62 834 1664.42 826.6C1667.42 819.2 1668.92 811 1668.92 802C1668.92 792.8 1667.42 784.6 1664.42 777.4C1661.62 770 1657.62 763.7 1652.42 758.5C1647.42 753.1 1641.42 749 1634.42 746.2C1627.62 743.4 1620.22 742 1612.22 742C1604.22 742 1596.72 743.4 1589.72 746.2C1582.92 749 1576.92 753.1 1571.72 758.5C1566.72 763.7 1562.72 770 1559.72 777.4C1556.92 784.6 1555.52 792.8 1555.52 802C1555.52 811 1556.92 819.2 1559.72 826.6C1562.72 834 1566.72 840.4 1571.72 845.8C1576.92 851 1582.92 855 1589.72 857.8C1596.72 860.6 1604.22 862 1612.22 862Z" fill="url(#paint1_linear_212_243)"/>
</g>
<g filter="url(#filter2_d_212_243)">
<path d="M1829 410.797C1769 448.297 1719.5 547.297 1719.5 550.297C1784.5 615.297 1844 611.297 1865 611.297C1886 611.297 2021.39 592.947 2028 441.797C2032 350.295 1951 283.295 1907 270.797C1961 301.295 2054.5 414.797 1965.5 531.797C1891.6 628.946 1825.5 552.797 1829 528.797V410.797Z" fill="url(#paint2_linear_212_243)" shape-rendering="crispEdges"/>
<path d="M1829 410.797C1769 448.297 1719.5 547.297 1719.5 550.297C1784.5 615.297 1844 611.297 1865 611.297C1886 611.297 2021.39 592.947 2028 441.797C2032 350.295 1951 283.295 1907 270.797C1961 301.295 2054.5 414.797 1965.5 531.797C1891.6 628.946 1825.5 552.797 1829 528.797V410.797Z" stroke="url(#paint3_linear_212_243)" stroke-opacity="0.2" shape-rendering="crispEdges"/>
</g>
<path d="M1839.5 523.501C1837.5 518.501 1826.5 428.501 1748.5 480.001" stroke="white" stroke-width="20"/>
<g filter="url(#filter3_d_212_243)">
<path d="M1842.5 346.294C1778 346.294 1690 500.295 1690.5 501.795C1686 496.295 1683.5 488.294 1675 439.794C1675 286.594 1826 250.795 1865.5 263.294C2023 409.294 1931.5 537.794 1877 524.795C1874.5 389.794 1889 346.294 1842.5 346.294Z" fill="url(#paint4_linear_212_243)" shape-rendering="crispEdges"/>
<path d="M1842.5 346.294C1778 346.294 1690 500.295 1690.5 501.795C1686 496.295 1683.5 488.294 1675 439.794C1675 286.594 1826 250.795 1865.5 263.294C2023 409.294 1931.5 537.794 1877 524.795C1874.5 389.794 1889 346.294 1842.5 346.294Z" stroke="url(#paint5_linear_212_243)" stroke-opacity="0.2" shape-rendering="crispEdges"/>
</g>
<defs>
<filter id="filter0_d_212_243" x="687.801" y="692.8" width="2309.9" height="226.4" filterUnits="userSpaceOnUse" color-interpolation-filters="sRGB">
<feFlood flood-opacity="0" result="BackgroundImageFix"/>
<feColorMatrix in="SourceAlpha" type="matrix" values="0 0 0 0 0 0 0 0 0 0 0 0 0 0 0 0 0 0 127 0" result="hardAlpha"/>
<feOffset dy="4"/>
<feGaussianBlur stdDeviation="2"/>
<feComposite in2="hardAlpha" operator="out"/>
<feColorMatrix type="matrix" values="0 0 0 0 0 0 0 0 0 0 0 0 0 0 0 0 0 0 0.25 0"/>
<feBlend mode="normal" in2="BackgroundImageFix" result="effect1_dropShadow_212_243"/>
<feBlend mode="normal" in="SourceGraphic" in2="effect1_dropShadow_212_243" result="shape"/>
</filter>
<filter id="filter1_d_212_243" x="687.801" y="692.8" width="1045.12" height="226.4" filterUnits="userSpaceOnUse" color-interpolation-filters="sRGB">
<feFlood flood-opacity="0" result="BackgroundImageFix"/>
<feColorMatrix in="SourceAlpha" type="matrix" values="0 0 0 0 0 0 0 0 0 0 0 0 0 0 0 0 0 0 127 0" result="hardAlpha"/>
<feOffset dy="4"/>
<feGaussianBlur stdDeviation="2"/>
<feComposite in2="hardAlpha" operator="out"/>
<feColorMatrix type="matrix" values="0 0 0 0 0 0 0 0 0 0 0 0 0 0 0 0 0 0 0.8 0"/>
<feBlend mode="normal" in2="BackgroundImageFix" result="effect1_dropShadow_212_243"/>
<feBlend mode="normal" in="SourceGraphic" in2="effect1_dropShadow_212_243" result="shape"/>
</filter>
<filter id="filter2_d_212_243" x="1715" y="270.315" width="317.645" height="349.529" filterUnits="userSpaceOnUse" color-interpolation-filters="sRGB">
<feFlood flood-opacity="0" result="BackgroundImageFix"/>
<feColorMatrix in="SourceAlpha" type="matrix" values="0 0 0 0 0 0 0 0 0 0 0 0 0 0 0 0 0 0 127 0" result="hardAlpha"/>
<feOffset dy="4"/>
<feGaussianBlur stdDeviation="2"/>
<feComposite in2="hardAlpha" operator="out"/>
<feColorMatrix type="matrix" values="0 0 0 0 0 0 0 0 0 0 0 0 0 0 0 0 0 0 0.3 0"/>
<feBlend mode="normal" in2="BackgroundImageFix" result="effect1_dropShadow_212_243"/>
<feBlend mode="normal" in="SourceGraphic" in2="effect1_dropShadow_212_243" result="shape"/>
</filter>
<filter id="filter3_d_212_243" x="1670.5" y="260.5" width="287.379" height="273.703" filterUnits="userSpaceOnUse" color-interpolation-filters="sRGB">
<feFlood flood-opacity="0" result="BackgroundImageFix"/>
<feColorMatrix in="SourceAlpha" type="matrix" values="0 0 0 0 0 0 0 0 0 0 0 0 0 0 0 0 0 0 127 0" result="hardAlpha"/>
<feOffset dy="4"/>
<feGaussianBlur stdDeviation="2"/>
<feComposite in2="hardAlpha" operator="out"/>
<feColorMatrix type="matrix" values="0 0 0 0 0 0 0 0 0 0 0 0 0 0 0 0 0 0 0.9 0"/>
<feBlend mode="normal" in2="BackgroundImageFix" result="effect1_dropShadow_212_243"/>
<feBlend mode="normal" in="SourceGraphic" in2="effect1_dropShadow_212_243" result="shape"/>
</filter>
<linearGradient id="paint0_linear_212_243" x1="-1.85837e-08" y1="48.0805" x2="3704" y2="1194.92" gradientUnits="userSpaceOnUse">
<stop stop-color="#093C5B"/>
<stop offset="1" stop-color="#137FC1"/>
</linearGradient>
<linearGradient id="paint1_linear_212_243" x1="1740" y1="799" x2="696" y2="799" gradientUnits="userSpaceOnUse">
<stop stop-color="#0BAB82"/>
<stop offset="1" stop-color="#093D5D"/>
</linearGradient>
<linearGradient id="paint2_linear_212_243" x1="1820.01" y1="637.255" x2="2110.85" y2="219.943" gradientUnits="userSpaceOnUse">
<stop stop-color="#142A48"/>
<stop offset="0.591075" stop-color="#0BAB82"/>
<stop offset="1" stop-color="#BAE831"/>
</linearGradient>
<linearGradient id="paint3_linear_212_243" x1="1873.82" y1="270.797" x2="1873.82" y2="611.345" gradientUnits="userSpaceOnUse">
<stop stop-color="#142A48"/>
<stop offset="1" stop-color="#BAE831"/>
</linearGradient>
<linearGradient id="paint4_linear_212_243" x1="1765.65" y1="545.842" x2="1978.37" y2="191.679" gradientUnits="userSpaceOnUse">
<stop stop-color="#142A48"/>
<stop offset="0.591075" stop-color="#0BAB82"/>
<stop offset="1" stop-color="#BAE831"/>
</linearGradient>
<linearGradient id="paint5_linear_212_243" x1="1814.19" y1="261" x2="1814.19" y2="525.703" gradientUnits="userSpaceOnUse">
<stop stop-color="#142A48"/>
<stop offset="1" stop-color="#BAE831"/>
</linearGradient>
</defs>
</svg>
